<svg id="Layer_1" data-name="Layer 1" xmlns="http://www.w3.org/2000/svg" viewBox="0 0 192 192"><title>loaded-weight_blk</title><path d="M132,172h-7.8V160.2h-56V172H61.4a6.2,6.2,0,0,0-6.2,6.2V184h83v-5.8A6.2,6.2,0,0,0,132,172Z"/><path d="M151.9,63.9V54a17.4,17.4,0,0,0-11.5-16.3l-16.2-5.8V16.7A8.7,8.7,0,0,0,115.5,8H76.9a8.7,8.7,0,0,0-8.7,8.7V31.8L51.6,37.7A17.4,17.4,0,0,0,40.1,54v9.9A10.3,10.3,0,0,0,31.8,74v30.8A10.3,10.3,0,0,0,42,115.1h5.2a10.3,10.3,0,0,0,10.3-10.3V74a10.2,10.2,0,0,0-8.4-10.1V54a8.3,8.3,0,0,1,5.5-7.8l13.6-4.9V118h56V41.5l13.2,4.7a8.3,8.3,0,0,1,5.5,7.8v9.9A10.2,10.2,0,0,0,134.5,74v30.8a10.3,10.3,0,0,0,10.3,10.3H150a10.3,10.3,0,0,0,10.2-10.3V74A10.3,10.3,0,0,0,151.9,63.9Z"/><path d="M145.4,128.9H113.9a6.8,6.8,0,0,0-6.8,6.8v.3H85.3v-.3a6.8,6.8,0,0,0-6.8-6.8H47a6.8,6.8,0,0,0-6.8,6.8v6.8a6.8,6.8,0,0,0,6.8,6.8H78.5a6.8,6.8,0,0,0,6.8-6.8v-.4h21.8v.4a6.8,6.8,0,0,0,6.8,6.8h31.5a6.8,6.8,0,0,0,6.8-6.8v-6.8A6.8,6.8,0,0,0,145.4,128.9Z"/></svg>