<svg id="Layer_1" data-name="Layer 1" xmlns="http://www.w3.org/2000/svg" viewBox="0 0 192 192"><title>aerial-yoga_blk</title><circle cx="23.1" cy="121.1" r="15.1"/><path d="M117.6,75.6c-.1-1.3-.4-15.8,6.5-39.7a2.8,2.8,0,0,0-2.9-3.5l-10.4.2a1.9,1.9,0,0,0-1.6,1.9c.7,7.3,2.8,38.1-3.8,59.1,0,0-10.7,40.1-23.8,62.5a2.7,2.7,0,0,0,2.3,4.1c7.7.3,22.7.3,28.6-3.1a2.5,2.5,0,0,0,1.3-2.2l3.8-79.1Z"/><path d="M181.4,127.4a7.8,7.8,0,0,0-10.9-1.5c-4.5,3.4-29,12.5-53.2,13.9l-.7,15.2c0,.2-.1.3-.1.4,26.9-1.1,55.4-11.1,63.4-17.1A7.8,7.8,0,0,0,181.4,127.4Z"/><path d="M117.4,137c23.6-1.3,47.3-10.2,51.5-13.3l.2-.2a7.6,7.6,0,0,0-1.8-7,7.9,7.9,0,0,0-11-.6c-3.4,3.2-19.7,11.3-38.6,16.1Z"/><path d="M74.9,130.7c6.1-2.7,12.9-5.9,18.9-9.3,3.1-8.9,5.6-17,7.2-22.3a7.8,7.8,0,0,0-4.9,2.1c-8.8,8.1-35.5,18.8-45,22.2h0a12.1,12.1,0,0,0-7.7,6.3,12.3,12.3,0,0,0,5.5,16.6c12.1,6.1,21.7,9.3,29.6,10.9a6.1,6.1,0,0,1,.8-2.5,158.3,158.3,0,0,0,9.9-21A54.6,54.6,0,0,1,74.9,130.7Z"/></svg>