<svg id="Layer_1" data-name="Layer 1" xmlns="http://www.w3.org/2000/svg" viewBox="0 0 192 192"><title>boxing-area_blk-01</title><path d="M132,59.7V56.1a13.9,13.9,0,0,0-13.9-13.9h-1.9L99,19.7V11.2a3,3,0,0,0-6,0v8.5L76,42.2H73.8A13.9,13.9,0,0,0,59.9,56.1v5.6H132ZM83.5,42.2,96,25.7l12.7,16.5Z"/><polygon points="59.9 78.8 59.9 129.8 59.9 135.8 59.9 146.8 132 146.8 132 135.8 132 129.8 132 78.8 59.9 78.8"/><path d="M59.9,164.8v5.1a13.9,13.9,0,0,0,13.9,13.9h44.3A13.9,13.9,0,0,0,132,169.9v-6.1H59.9Z"/></svg>