<svg id="Layer_1" data-name="Layer 1" xmlns="http://www.w3.org/2000/svg" viewBox="0 0 192 192"><title>roof-terrace_blk</title><path d="M58,55.8A25.5,25.5,0,0,0,32.4,80.9h0a1.4,1.4,0,0,0,1.4,1.4h0A1.3,1.3,0,0,0,35.2,81a6.6,6.6,0,0,1,6.6-6.5h.1A6.5,6.5,0,0,1,48.4,81h0a1.4,1.4,0,0,0,1.4,1.4h0a1.4,1.4,0,0,0,1.4-1.4,6.6,6.6,0,0,1,6.6-6.5h.1a6.6,6.6,0,0,1,6.5,6.6,1.4,1.4,0,0,0,1.4,1.4,1.4,1.4,0,0,0,1.4-1.4,6.6,6.6,0,0,1,6.6-6.4h0a6.8,6.8,0,0,1,4.7,1.9,6.9,6.9,0,0,1,1.8,4.7,1.4,1.4,0,0,0,1.4,1.4h0a1.4,1.4,0,0,0,1.4-1.4h0A25.4,25.4,0,0,0,58,55.8Z"/><path d="M109,106v78h15.5V161a10,10,0,0,1,20,0v23h4.9A10.7,10.7,0,0,0,160,173.4V106Z"/><path d="M32,152.5V174a10,10,0,0,0,10,10h63V152.5Z"/><path d="M149.4,8H119.6A10.7,10.7,0,0,0,109,18.6V102h51V18.6A10.7,10.7,0,0,0,149.4,8ZM127.5,82a4,4,0,0,1-8,0V74.5a4,4,0,0,1,8,0Zm0-25.3a4,4,0,0,1-8,0V49.3a4,4,0,0,1,8,0Zm0-25.2a4,4,0,0,1-8,0V24a4,4,0,0,1,8,0Zm22,50.5a4,4,0,0,1-8,0V74.5a4,4,0,0,1,8,0Zm0-25.3a4,4,0,0,1-8,0V49.3a4,4,0,0,1,8,0Zm0-25.2a4,4,0,0,1-8,0V24a4,4,0,0,1,8,0Z"/><path d="M60,106l.2-24.6A2.4,2.4,0,0,0,58,79.1h-.1a2.2,2.2,0,0,0-2.2,2.3L55.4,106H32v42.5h73V106Zm-8,26.2a4,4,0,0,1-8,0v-9.9a4,4,0,0,1,8,0Zm20.5,0a4,4,0,0,1-8,0v-9.9a4,4,0,0,1,8,0Zm20.5,0a4,4,0,0,1-8,0v-9.9a4,4,0,0,1,8,0Z"/></svg>