<svg id="Layer_1" data-name="Layer 1" xmlns="http://www.w3.org/2000/svg" viewBox="0 0 192 192"><title>steam_blk</title><path d="M67.8,86a3.6,3.6,0,0,0-2.6,1.1c-8.6,8.5-8.9,19.1-1,29l.3.4c2.4,2.9,4.6,5.6,3.7,10.2a3.6,3.6,0,0,0,2.9,4.3h.7a3.5,3.5,0,0,0,3.5-2.9c1.5-7.9-2.5-12.9-5.1-16.2l-.3-.3c-5.7-7.1-5.5-13.4.4-19.4a3.6,3.6,0,0,0,0-5.1A3.6,3.6,0,0,0,67.8,86Z"/><path d="M96.7,86a3.8,3.8,0,0,0-2.6,1.1c-8.6,8.5-8.9,19.1-.9,29l.3.4c2.3,2.9,4.5,5.6,3.6,10.2A3.6,3.6,0,0,0,100,131h.7a3.5,3.5,0,0,0,3.5-2.9c1.5-7.9-2.4-12.9-5.1-16.2l-.3-.3c-5.7-7.1-5.5-13.4.4-19.4a3.5,3.5,0,0,0,.1-5.1A4,4,0,0,0,96.7,86Z"/><path d="M125.6,86a3.8,3.8,0,0,0-2.6,1.1c-8.5,8.5-8.9,19.1-.9,29l.3.4c2.3,2.9,4.5,5.6,3.6,10.2a3.7,3.7,0,0,0,2.9,4.3h.7a3.7,3.7,0,0,0,3.6-2.9c1.5-7.9-2.5-12.9-5.2-16.2l-.3-.3c-5.6-7.1-5.5-13.4.5-19.4a3.6,3.6,0,0,0,0-5.1,3.8,3.8,0,0,0-2.6-1.1Z"/><path d="M96,20.2A9.3,9.3,0,0,0,90.5,22L24.4,73.6a11.3,11.3,0,0,0-4.4,9v78.5A10.9,10.9,0,0,0,30.9,172H161.1A10.9,10.9,0,0,0,172,161.1V82.6a11.3,11.3,0,0,0-4.4-9L101.5,22A9.3,9.3,0,0,0,96,20.2ZM31,161V82.6l.2-.4L96,31.7l64.8,50.5a.8.8,0,0,1,.2.4V161H123v-9.5H69V161Z"/></svg>